<svg width="33" height="26" viewBox="0 0 33 26" fill="none" xmlns="http://www.w3.org/2000/svg">
<path d="M11 17.3333V8.66667H22V17.3333H11ZM14.6667 14.4444H18.3333V11.5556H14.6667V14.4444ZM11 26V23.1111H7.33333C6.325 23.1111 5.46181 22.8282 4.74375 22.2625C4.02569 21.6968 3.66667 21.0167 3.66667 20.2222V17.3333H0V14.4444H3.66667V11.5556H0V8.66667H3.66667V5.77778C3.66667 4.98333 4.02569 4.30324 4.74375 3.7375C5.46181 3.17176 6.325 2.88889 7.33333 2.88889H11V0H14.6667V2.88889H18.3333V0H22V2.88889H25.6667C26.675 2.88889 27.5382 3.17176 28.2562 3.7375C28.9743 4.30324 29.3333 4.98333 29.3333 5.77778V8.66667H33V11.5556H29.3333V14.4444H33V17.3333H29.3333V20.2222C29.3333 21.0167 28.9743 21.6968 28.2562 22.2625C27.5382 22.8282 26.675 23.1111 25.6667 23.1111H22V26H18.3333V23.1111H14.6667V26H11ZM25.6667 20.2222V5.77778H7.33333V20.2222H25.6667Z" fill="#E3E3E3"/>
</svg>
